# xmcd
#
# Track frame offsets:
#	150
#	13895
#	32378
#	47437
#	61739
#	79383
#	89867
#	101656
#	115833
#	130447
#	146088
#	163913
#	175411
#	187540
#	204322
#	215221
#	227383
#	239975
#	250994
#	266117
#	281542
#	297138
#	309372
#	321836
#	337999
#
# Disc length: 4694 seconds
#
# Revision: 1
# Processed by: cddbd v1.5.2PL0 Copyright (c) Steve Scherf et al.
# Submitted via: audiograbber 1.83.01
#
DISCID=76125419
DTITLE=J.J. Cale - The Silvertone Years
DYEAR=2011
DGENRE=Blues
TTITLE0=Hold On Baby (1989)
TTITLE1=Artificial Paradise (1992)
TTITLE2=Lean On Me (1989)
TTITLE3=Lonesome Train (1992)
TTITLE4=Tijuana (1989)
TTITLE5=That Kind Of Thing (1989)
TTITLE6=Shanghaid (1989)
TTITLE7=River Boat Song (1989)
TTITLE8=No Time (1989)
TTITLE9=Who's Talking (1989)
TTITLE10=Shady Grove (1992)
TTITLE11=New Orleans (1989)
TTITLE12=Lady Luck (1989)
TTITLE13=She's In Love (1992)
TTITLE14=Passion (1992)
TTITLE15=Take Out Some Insurance (1992)
TTITLE16=Jailer (1992)
TTITLE17=Change Your Mind (1989)
TTITLE18=Feeling In Love (1992)
TTITLE19=Humdinger (1989)
TTITLE20=Traces (1992)
TTITLE21=Roll On Mama (1992)
TTITLE22=Low Rider (1992)
TTITLE23=Disadvantage (1989)
TTITLE24=End Of The Line (1989)
EXTD=Track dates provided.
EXTT0=
EXTT1=
EXTT2=
EXTT3=
EXTT4=
EXTT5=
EXTT6=
EXTT7=
EXTT8=
EXTT9=
EXTT10=
EXTT11=
EXTT12=
EXTT13=
EXTT14=
EXTT15=
EXTT16=
EXTT17=
EXTT18=
EXTT19=
EXTT20=
EXTT21=
EXTT22=
EXTT23=
EXTT24=
PLAYORDER=
